<?xml version="1.0" standalone="no"?><!DOCTYPE svg PUBLIC "-//W3C//DTD SVG 1.1//EN" "http://www.w3.org/Graphics/SVG/1.1/DTD/svg11.dtd"><svg class="icon" width="200px" height="200.00px" viewBox="0 0 1024 1024" version="1.1" xmlns="http://www.w3.org/2000/svg"><path fill="#333333" d="M896 469.333333c0-25.6-17.066667-42.666667-42.666667-42.666666s-42.666667 17.066667-42.666666 42.666666c0 166.4-132.266667 298.666667-298.666667 298.666667s-298.666667-132.266667-298.666667-298.666667c0-25.6-17.066667-42.666667-42.666666-42.666666s-42.666667 17.066667-42.666667 42.666666c0 196.266667 149.333333 358.4 341.333333 379.733334V938.666667H341.333333c-25.6 0-42.666667 17.066667-42.666666 42.666666s17.066667 42.666667 42.666666 42.666667h341.333334c25.6 0 42.666667-17.066667 42.666666-42.666667s-17.066667-42.666667-42.666666-42.666666h-128v-89.6c192-21.333333 341.333333-183.466667 341.333333-379.733334z"  /><path fill="#333333" d="M512 682.666667c119.466667 0 213.333333-93.866667 213.333333-213.333334V213.333333c0-119.466667-93.866667-213.333333-213.333333-213.333333S298.666667 93.866667 298.666667 213.333333v256c0 119.466667 93.866667 213.333333 213.333333 213.333334z"  /></svg>